<svg xmlns="http://www.w3.org/2000/svg" width="1200" height="630" viewBox="0 0 1200 630" role="img" aria-label="Kim Seonil Performance Marketer Portfolio">
  <defs>
    <linearGradient id="bg" x1="0" y1="0" x2="1" y2="1">
      <stop offset="0%" stop-color="#07120f"/>
      <stop offset="48%" stop-color="#070b12"/>
      <stop offset="100%" stop-color="#0b1220"/>
    </linearGradient>
    <linearGradient id="mint" x1="0" y1="0" x2="1" y2="0">
      <stop offset="0%" stop-color="#2ce8a6"/>
      <stop offset="100%" stop-color="#38bdf8"/>
    </linearGradient>
    <radialGradient id="glow" cx="78%" cy="26%" r="55%">
      <stop offset="0%" stop-color="#2ce8a6" stop-opacity=".32"/>
      <stop offset="58%" stop-color="#2ce8a6" stop-opacity=".08"/>
      <stop offset="100%" stop-color="#2ce8a6" stop-opacity="0"/>
    </radialGradient>
    <pattern id="grid" width="64" height="64" patternUnits="userSpaceOnUse">
      <path d="M64 0H0V64" fill="none" stroke="#ffffff" stroke-opacity=".07"/>
    </pattern>
  </defs>
  <rect width="1200" height="630" fill="url(#bg)"/>
  <rect width="1200" height="630" fill="url(#grid)" opacity=".8"/>
  <rect width="1200" height="630" fill="url(#glow)"/>
  <rect x="66" y="56" width="48" height="48" rx="14" fill="#0b111c" stroke="#ffffff" stroke-opacity=".16"/>
  <path d="M80 84 L91 73 L99 81 L111 63" fill="none" stroke="#2ce8a6" stroke-width="4" stroke-linecap="round" stroke-linejoin="round"/>
  <circle cx="111" cy="63" r="3.5" fill="#2ce8a6"/>
  <text x="132" y="90" fill="#e8eef6" font-family="Arial, sans-serif" font-size="28" font-weight="700">SEONIL</text>
  <circle cx="242" cy="84" r="4" fill="#2ce8a6"/>
  <text x="66" y="175" fill="#2ce8a6" font-family="Arial, sans-serif" font-size="18" font-weight="700" letter-spacing="4">PERFORMANCE · IMC · DATA</text>
  <text x="66" y="258" fill="#e8eef6" font-family="Arial, sans-serif" font-size="58" font-weight="800">김선일 포트폴리오</text>
  <text x="66" y="334" fill="#e8eef6" font-family="Arial, sans-serif" font-size="44" font-weight="700">브랜드의 성장을 데이터로 증명합니다</text>
  <text x="66" y="394" fill="#aab6c6" font-family="Arial, sans-serif" font-size="24">GA4 · SQL · 검색/디스플레이/SNS · IMC 캠페인 운영</text>
  <g transform="translate(66 462)">
    <rect width="238" height="78" rx="18" fill="#0a0f18" stroke="#ffffff" stroke-opacity=".12"/>
    <text x="26" y="34" fill="#2ce8a6" font-family="Arial, sans-serif" font-size="24" font-weight="800">583%</text>
    <text x="26" y="58" fill="#aab6c6" font-family="Arial, sans-serif" font-size="17">IMC ROAS</text>
  </g>
  <g transform="translate(326 462)">
    <rect width="238" height="78" rx="18" fill="#0a0f18" stroke="#ffffff" stroke-opacity=".12"/>
    <text x="26" y="34" fill="#2ce8a6" font-family="Arial, sans-serif" font-size="24" font-weight="800">30+</text>
    <text x="26" y="58" fill="#aab6c6" font-family="Arial, sans-serif" font-size="17">운영 브랜드</text>
  </g>
  <g transform="translate(586 462)">
    <rect width="238" height="78" rx="18" fill="#0a0f18" stroke="#ffffff" stroke-opacity=".12"/>
    <text x="26" y="34" fill="#2ce8a6" font-family="Arial, sans-serif" font-size="24" font-weight="800">Full Funnel</text>
    <text x="26" y="58" fill="#aab6c6" font-family="Arial, sans-serif" font-size="17">인지부터 전환까지</text>
  </g>
  <path d="M874 420 C944 380 988 298 1055 234" fill="none" stroke="url(#mint)" stroke-width="12" stroke-linecap="round"/>
  <path d="M874 506 C936 458 1014 438 1112 326" fill="none" stroke="#2ce8a6" stroke-opacity=".36" stroke-width="56" stroke-linecap="round"/>
</svg>
